PathFileType	4	(X/Y/Z)	D:\TRACE\spot_10-12-23\spot_body_motion_3_3-platform.trc
DataRate	CameraRate	NumFrames	NumMarkers	Units	OrigDataRate	OrigDataStartFrame	OrigNumFrames
100.00	100.00	      72	5	mm	100.00	1	      7000
Frame#	Time	Left_Front			Right_Front			Left_Aft			Right_Aft			Post			
		X1	Y1	Z1	X2	Y2	Z2	X3	Y3	Z3	X4	Y4	Z4	X5	Y5	Z5	

1	0.000	-819.95343	123.60863	-602.33282	752.76996	126.93001	-595.64258	-736.38318	-78.89795	517.45874	681.17914	-89.57519	602.46259	-37.62038	905.92322	-784.43091	
2	0.010	-819.91785	123.57726	-602.39526	752.82544	126.96992	-595.58899	-736.40582	-78.86608	517.41833	681.21191	-89.58567	602.40552	-37.64161	905.93799	-784.34302	
3	0.020	-819.90106	123.61257	-602.37524	752.81842	127.01299	-595.62531	-736.38214	-78.90153	517.42212	681.20447	-89.55571	602.42328	-37.68665	905.99701	-784.29980	
4	0.030	-820.07660	123.66998	-602.31909	752.86340	127.03052	-595.60895	-736.36414	-78.84532	517.39563	681.19910	-89.50990	602.43921	-37.98149	905.99841	-784.21082	
5	0.040	-819.93237	123.66012	-602.37225	752.86041	126.98890	-595.65161	-736.37219	-78.83438	517.43805	681.16473	-89.52628	602.39807	-37.58007	905.83136	-784.15375	
6	0.050	-819.96503	123.59902	-602.34753	752.79004	126.95644	-595.63373	-736.39185	-78.84200	517.40253	681.16351	-89.53521	602.43207	-37.57642	905.79559	-784.14471	
7	0.060	-819.97437	123.56764	-602.32324	752.79962	126.95230	-595.63458	-736.36963	-78.87975	517.41620	681.18866	-89.55115	602.39618	-37.63479	905.79108	-784.20850	
8	0.070	-819.93311	123.56813	-602.41058	752.83014	126.96901	-595.60931	-736.42078	-78.85191	517.42590	681.19391	-89.55425	602.41302	-37.63886	905.84753	-784.30530	
9	0.080	-819.89478	123.60745	-602.38885	752.85675	127.01302	-595.63434	-736.39160	-78.87504	517.39142	681.19104	-89.50928	602.45630	-37.65527	905.84131	-784.34686	
10	0.090	-819.93781	123.66457	-602.39630	752.83807	127.03250	-595.66815	-736.36511	-78.87528	517.41052	681.19720	-89.52011	602.44238	-37.60668	905.87201	-784.38568	
11	0.100	-819.95477	123.66655	-602.34808	752.85156	126.98914	-595.60883	-736.36871	-78.90491	517.40558	681.19019	-89.52436	602.42352	-37.63019	905.88605	-784.40100	
12	0.110	-819.95984	123.60954	-602.33575	752.79974	126.96994	-595.63373	-736.40491	-78.85705	517.44843	681.14862	-89.53774	602.41174	-37.65203	905.82776	-784.36847	
13	0.120	-819.89490	123.58878	-602.40533	752.83032	126.96388	-595.60004	-736.43524	-78.91765	517.43604	681.14966	-89.56468	602.41779	-37.61759	905.87665	-784.32361	
14	0.130	-819.91968	123.60878	-602.40271	752.81049	126.99066	-595.58716	-736.39081	-78.87808	517.41345	681.18195	-89.52596	602.42517	-37.67322	905.86328	-784.29242	
15	0.140	-819.91003	123.59576	-602.43835	752.82904	127.00707	-595.62866	-736.36926	-78.83365	517.38306	681.19006	-89.54319	602.38617	-37.61209	905.80518	-784.24933	
16	0.150	-819.94092	123.63714	-602.37909	752.84448	126.96626	-595.64331	-736.41901	-78.84202	517.41614	681.19098	-89.52735	602.47192	-37.62589	905.82190	-784.22723	
17	0.160	-819.94092	123.61269	-602.35571	752.82916	126.95620	-595.66345	-736.40698	-78.86665	517.42340	681.20239	-89.56474	602.42706	-37.68823	905.81482	-784.28882	
18	0.170	-819.92493	123.59209	-602.35620	752.82336	126.96054	-595.61938	-736.38873	-78.90607	517.44659	681.18988	-89.58866	602.44330	-37.63636	905.82373	-784.29022	
19	0.180	-819.95685	123.57067	-602.37238	752.80731	126.95850	-595.64490	-736.37616	-78.90019	517.42841	681.17108	-89.55889	602.42163	-37.61533	905.85358	-784.32977	
20	0.190	-819.92780	123.61054	-602.38873	752.81720	126.98773	-595.64612	-736.39716	-78.89503	517.38129	681.17242	-89.55599	602.43793	-37.60117	905.87207	-784.38843	
21	0.200	-819.93201	123.64954	-602.35992	752.82257	127.00035	-595.66193	-736.40179	-78.85432	517.38287	681.14587	-89.56641	602.42084	-37.57556	905.91486	-784.39813	
22	0.210	-819.94977	123.67092	-602.31757	752.84644	126.98245	-595.62976	-736.39441	-78.85228	517.42621	681.18530	-89.60567	602.44391	-37.62456	905.87073	-784.37469	
23	0.220	-819.92200	123.60224	-602.36444	752.79053	126.97007	-595.63330	-736.40448	-78.88697	517.40784	681.16998	-89.57384	602.42975	-37.63385	905.85962	-784.34491	
24	0.230	-819.94452	123.59186	-602.36017	752.79407	126.97575	-595.61169	-736.35815	-78.88998	517.47198	681.16724	-89.54104	602.42493	-37.68153	905.82941	-784.29797	
25	0.240	-819.94226	123.56784	-602.38190	752.84491	126.98230	-595.61694	-736.40887	-78.90901	517.37439	681.17084	-89.55095	602.40894	-37.63139	905.81146	-784.28387	
26	0.250	-820.07446	123.65663	-602.31036	752.81793	126.97115	-595.66235	-736.38654	-78.86018	517.43079	681.17383	-89.55886	602.41510	-37.58526	905.83026	-784.19983	
27	0.260	-819.93585	123.64606	-602.38855	752.80975	126.99171	-595.65698	-736.41205	-78.83564	517.41797	681.53796	-89.45263	603.17224	-37.64965	905.85437	-784.24683	
28	0.270	-819.92749	123.61793	-602.37915	752.84485	126.99989	-595.62756	-736.42822	-78.86665	517.41949	681.38037	-89.59250	603.07849	-37.64521	905.86932	-784.30096	
29	0.280	-819.94757	123.62570	-602.34833	752.82910	127.00708	-595.61475	-736.41309	-78.88891	517.42468	681.26660	-89.68152	602.91791	-37.67887	905.85889	-784.34375	
30	0.290	-819.89423	123.60550	-602.41479	752.77960	127.05223	-595.64893	-736.41516	-78.89926	517.41205	681.08545	-89.75965	602.59717	-37.62983	905.84308	-784.35669	
31	0.300	-820.06366	123.67806	-602.32031	752.81421	127.00293	-595.63000	-736.33038	-78.94167	517.40619	681.03955	-89.91986	602.58588	-37.66683	905.91699	-784.36407	
32	0.310	-820.09027	123.68088	-602.31488	752.81097	127.00669	-595.65387	-736.40210	-78.93391	517.39673	680.93549	-90.06983	602.51312	-37.65198	905.90961	-784.38959	
33	0.320	-819.91309	123.62141	-602.35022	752.79266	127.04796	-595.64099	-736.40521	-78.76035	517.45984	680.73907	-90.41035	602.47284	-37.53867	905.88971	-784.30756	
34	0.330	-819.92194	123.62661	-602.37677	752.79169	127.06919	-595.62115	-736.41199	-78.81740	517.46643	680.65631	-90.37994	602.48743	-37.67550	905.82928	-784.29950	
35	0.340	-820.08710	123.68214	-602.31635	752.77887	127.02254	-595.63068	-736.42114	-78.80513	517.41333	681.13715	-89.55201	602.44379	-37.62062	905.80505	-784.25330	
36	0.350	-819.91541	123.53761	-602.41577	752.81281	126.97929	-595.60815	-736.42004	-78.80492	517.43451	681.16693	-89.56900	602.42230	-37.63736	905.76355	-784.24731	
37	0.360	-819.91687	123.49488	-602.43353	752.84692	126.95396	-595.64191	-736.42816	-78.81474	517.37726	681.23535	-89.61784	602.42499	-37.60533	905.76776	-784.27008	
38	0.370	-819.96289	123.62079	-602.38611	752.82959	126.94928	-595.60217	-736.39740	-78.80508	517.40601	681.14758	-89.56706	602.44067	-37.65219	905.78418	-784.33032	
39	0.380	-819.95898	123.65716	-602.37903	752.84735	127.00969	-595.62970	-736.40918	-78.83076	517.44238	681.14172	-89.56810	602.40454	-37.54004	905.77802	-784.36542	
40	0.390	-819.93921	123.65987	-602.37811	752.79718	127.01718	-595.63092	-736.40076	-78.79607	517.45026	681.13812	-89.54592	602.42529	-37.55618	905.83173	-784.37640	
41	0.400	-819.91516	123.60879	-602.38855	752.83539	126.97096	-595.63916	-736.39398	-78.83422	517.42499	681.15204	-89.52698	602.39081	-37.58099	905.78748	-784.44153	
42	0.410	-819.93628	123.60587	-602.40784	752.84845	127.05201	-595.62415	-736.38397	-78.80625	517.40485	681.13403	-89.57454	602.43262	-37.57075	905.84277	-784.44916	
43	0.420	-819.94049	123.58977	-602.38898	752.84912	127.02502	-595.67517	-736.38495	-78.81854	517.41626	681.18604	-89.60420	602.37848	-37.57731	905.87305	-784.42407	
44	0.430	-819.91437	123.61938	-602.39813	752.82556	127.03297	-595.56512	-736.39063	-78.82508	517.42383	681.12769	-89.59917	602.40198	-37.64527	905.86658	-784.36090	
45	0.440	-819.92639	123.70744	-602.36560	752.83954	127.00012	-595.64191	-736.41675	-78.79891	517.44788	681.17047	-89.63680	602.37360	-37.66914	905.87109	-784.29358	
46	0.450	-819.90936	123.68634	-602.40564	752.78784	127.05466	-595.63245	-736.39093	-78.77270	517.43927	681.17493	-89.57619	602.39972	-37.07370	905.71375	-784.14850	
47	0.460	-820.06476	123.70811	-602.34619	752.80054	127.01897	-595.66235	-736.38922	-78.77116	517.42780	681.18591	-89.56154	602.40643	-37.41436	905.76819	-784.15363	
48	0.470	-820.06207	123.64692	-602.36945	752.75916	126.96353	-595.65826	-736.43195	-78.78910	517.40930	681.17621	-89.57560	602.39459	-37.42177	905.81097	-784.17767	
49	0.480	-819.97247	123.57770	-602.39331	752.81073	126.93428	-595.64130	-736.40100	-78.79915	517.38586	681.14166	-89.56961	602.36761	-37.47462	905.77246	-784.27679	
50	0.490	-819.97882	123.58180	-602.39380	752.82117	126.96072	-595.62396	-736.44568	-78.79095	517.44452	681.09192	-89.58025	602.31366	-37.44109	905.82684	-784.36566	
51	0.500	-819.94434	123.60403	-602.35754	752.79541	127.02609	-595.62677	-736.41211	-78.77142	517.43640	681.14197	-89.61448	602.34674	-37.35398	905.86121	-784.42566	
52	0.510	-819.89960	123.61639	-602.39423	752.80853	127.01234	-595.64752	-736.39972	-78.81919	517.43634	681.13879	-89.64188	602.30847	-37.32193	905.87714	-784.51044	
53	0.520	-819.92511	123.62917	-602.37061	752.81354	127.07306	-595.64117	-736.45331	-78.80022	517.44073	681.16479	-89.63577	602.31586	-37.27874	905.86774	-784.49054	
54	0.530	-819.92432	123.66618	-602.37744	752.81989	127.02574	-595.64630	-736.41052	-78.80429	517.42053	681.14594	-89.62724	602.30487	-37.24761	905.89166	-784.49017	
55	0.540	-819.93933	123.66662	-602.41223	752.84668	127.05197	-595.62573	-736.41870	-78.83712	517.43085	681.11676	-89.66396	602.29285	-37.40939	905.87030	-784.41003	
56	0.550	-819.89398	123.66295	-602.37909	752.83575	127.05169	-595.64551	-736.42169	-78.81084	517.44751	681.13763	-89.63880	602.26758	-37.42293	905.77930	-784.31744	
57	0.560	-820.07581	123.65955	-602.32147	752.82111	127.01392	-595.61591	-736.41364	-78.76596	517.40149	681.30334	-89.91750	603.09790	-37.44968	905.69525	-784.27600	
58	0.570	-819.96014	123.59599	-602.38000	752.82489	126.98414	-595.63275	-736.43402	-78.78347	517.40497	681.28308	-89.89993	603.09430	-37.44105	905.60480	-784.18274	
59	0.580	-819.94171	123.57378	-602.41736	752.83600	126.93232	-595.64905	-736.42737	-78.75927	517.39703	681.19550	-89.91271	603.03607	-37.37600	905.56287	-784.14795	
60	0.590	-819.94281	123.60498	-602.42950	752.82666	126.94318	-595.65894	-736.40601	-78.76127	517.46942	681.18817	-89.93195	602.98389	-37.44162	905.57776	-784.17694	
61	0.600	-819.94867	123.60587	-602.37604	752.83826	126.94067	-595.64301	-736.41138	-78.77783	517.40466	681.17792	-89.92667	602.97455	-37.49276	905.65076	-784.27997	
62	0.610	-820.04657	123.67918	-602.34912	752.81091	127.04798	-595.66443	-736.38141	-78.82954	517.37054	681.22314	-89.94088	602.95776	-37.44522	905.68146	-784.33344	
63	0.620	-820.08075	123.68902	-602.30157	752.85938	127.02325	-595.65387	-736.39075	-78.82853	517.40656	681.21130	-89.94054	602.95599	-37.43166	905.81128	-784.40771	
64	0.630	-819.90161	123.65578	-602.40216	752.82861	127.06226	-595.58929	-736.41003	-78.85677	517.40027	681.21582	-89.97513	602.96869	-37.43928	905.86902	-784.41772	
65	0.640	-820.09326	123.74034	-602.28937	752.82446	127.07047	-595.62402	-736.40546	-78.84451	517.43152	681.22150	-89.98580	603.00513	-37.36835	905.88428	-784.39490	
66	0.650	-820.06708	123.68147	-602.29468	752.79333	127.04784	-595.64606	-736.40942	-78.84309	517.40594	681.19751	-90.00930	603.00549	-37.38378	905.80072	-784.32147	
67	0.660	-819.89746	123.62717	-602.39130	752.81122	127.02031	-595.63849	-736.39490	-78.80608	517.42603	681.24072	-89.96373	603.07690	-37.47160	905.72998	-784.28271	
68	0.670	-819.95300	123.58295	-602.37390	752.78326	126.98793	-595.61963	-736.39575	-78.82101	517.41455	681.21130	-89.85147	603.09973	-37.42423	905.66876	-784.21246	
69	0.680	-819.93805	123.57973	-602.39038	752.77789	127.03147	-595.66626	-736.38843	-78.81546	517.39819	681.31409	-89.87498	603.15930	-37.46108	905.65051	-784.21625	
70	0.690	-819.92029	123.69816	-602.37073	752.89716	126.95249	-595.62134	-736.37677	-78.82990	517.45618	681.38147	-89.93674	603.19867	-37.41817	905.66156	-784.19348	
71	0.700	-819.91925	123.57605	-602.39874	752.84882	126.88692	-595.67114	-736.40533	-78.77763	517.41681	681.32507	-89.92621	603.35059	-37.53205	905.63782	-784.24646	
72	0.710	-819.92053	123.56909	-602.41516	752.82275	126.91266	-595.62494	-736.32135	-78.94940	517.74921	681.23505	-89.96092	603.29431	-37.45867	905.55487	-784.32458	
